<svg xmlns="http://www.w3.org/2000/svg" shape-rendering="geometricPrecision" text-rendering="geometricPrecision" image-rendering="optimizeQuality" fill-rule="evenodd" clip-rule="evenodd" viewBox="0 0 512 284.498"><path fill="#D0232B" d="M225.779 253.403l-18.823-51.007s-30.491 34.026-76.188 34.026c-40.526 0-69.224-35.199-69.224-91.497 0-72.096 36.378-97.891 72.097-97.891 51.584 0 67.997 33.411 82.111 76.205l18.823 58.593c18.813 56.894 54.021 102.609 155.399 102.609 72.701 0 122.026-22.309 122.026-80.914 0-47.49-27.007-72.097-77.418-83.898l-37.494-8.191c-25.807-5.887-33.411-16.412-33.411-34.028 0-19.908 15.808-31.713 41.615-31.713 28.186 0 43.39 10.592 45.687 35.813l58.602-7.003C504.877 21.695 468.496 0 408.693 0c-52.811 0-104.404 19.908-104.404 83.907 0 39.904 19.391 65.085 68.005 76.802l39.904 9.4c29.877 7.013 39.894 19.391 39.894 36.391 0 21.695-21.099 30.494-60.993 30.494-59.21 0-83.908-31.108-97.904-73.893l-19.391-58.593C249.297 28.211 209.998.091 132.014.091 45.791.091 0 54.593 0 147.296c0 89.096 45.697 137.202 127.914 137.202 66.201 0 97.892-31.107 97.892-31.107l-.027.009v.003z"/></svg>